<svg id="svg" version="1.1" xmlns="http://www.w3.org/2000/svg" style="display: block;" viewBox="0 0 1582 804"><path d="M0 0 C522.06 0 1044.12 0 1582 0 C1582 265.32 1582 530.64 1582 804 C1059.94 804 537.88 804 0 804 C0 538.68 0 273.36 0 0 Z " transform="translate(0,0)" style="fill: white"/><path d="M0 0 C20.00345518 15.6087567 27.72617017 38.0698533 35.8125 61.1875 C36.63936401 63.525942 37.46734974 65.86398764 38.29638672 68.20166016 C40.01494331 73.05039186 41.7287127 77.90077459 43.43896484 82.75244141 C48.23223116 96.33574668 53.11487052 109.88724816 57.984375 123.44335938 C58.76694832 125.62238821 59.54950047 127.80142464 60.33203125 129.98046875 C60.90916367 131.5869075 60.90916367 131.5869075 61.49795532 133.22579956 C63.87312574 139.84245687 66.23187065 146.46473376 68.57922363 153.09130859 C70.11732981 157.42855526 71.66385005 161.76277369 73.21185303 166.09649658 C73.93516058 168.12779833 74.65471844 170.16043991 75.37017822 172.19451904 C80.39121363 186.71370741 80.39121363 186.71370741 88 200 C88.86625 201.3303125 88.86625 201.3303125 89.75 202.6875 C99.80543138 213.02224892 111.33884708 216.35522709 125.3125 217.5 C146.15630703 219.54488364 162.2860991 225.66065408 177 241 C177.54454834 241.54897949 178.08909668 242.09795898 178.65014648 242.66357422 C184.12812679 248.49193059 187.65338448 255.19332835 191.3125 262.25 C191.97283407 263.50420282 192.6338944 264.75802352 193.2956543 266.01147461 C197.4161432 273.84212663 201.43665141 281.72367003 205.34643555 289.66169739 C208.02295126 295.0823994 210.78999717 300.44591352 213.625 305.78515625 C219.54358343 316.98242361 225.29699818 328.26246819 231.04907227 339.54589844 C237.4202623 352.04092607 237.4202623 352.04092607 243.90625 364.4765625 C244.41865234 365.44932129 244.93105469 366.42208008 245.45898438 367.42431641 C250.36964253 375.63208629 258.0427248 381.19582524 267.3046875 383.59765625 C280.04460955 385.49941273 290.2950831 384.53063013 301 377 C307.57968583 371.71821965 311.06579945 365.03192319 314.875 357.625 C315.51679103 356.39993121 316.15963996 355.17541613 316.8034668 353.95141602 C318.52674423 350.66538844 320.23228602 347.37050059 321.9319458 344.07220459 C323.01491593 341.97106059 324.1006231 339.87135096 325.18701172 337.77197266 C328.84098578 330.70823775 332.48186962 323.63785773 336.11328125 316.5625 C340.67662329 307.67326724 345.27441907 298.80428233 350 290 C350.3805957 289.28585937 350.76119141 288.57171875 351.15332031 287.8359375 C355.74833495 279.25344991 360.39989665 271.23238216 367 264 C367.46970215 263.47728516 367.9394043 262.95457031 368.42333984 262.41601562 C392.37517013 236.06825123 428.78977472 220.13040932 464.21875 217.78710938 C468.53774536 217.59611607 472.85101665 217.44698602 477.17431641 217.41479492 C487.45185176 217.26298119 496.92163989 215.12553674 506.0625 210.375 C506.73804932 210.02727539 507.41359863 209.67955078 508.10961914 209.32128906 C519.30023484 203.35828006 526.94540763 195.47079261 534 185 C534.53109375 184.23429688 535.0621875 183.46859375 535.609375 182.6796875 C543.56259663 170.40778101 548.15524661 155.85471044 553.01098633 142.15991211 C557.0658725 130.73311961 561.28549871 119.36868704 565.5 108 C570.07109523 95.66348496 574.63551692 83.32661044 579.0625 70.9375 C590.86592177 38.03943064 602.87775979 8.91532624 636.05175781 -7.31640625 C648.44368629 -13.15771934 659.32438271 -15.19508072 672.9375 -15.25 C674.18080078 -15.270625 675.42410156 -15.29125 676.70507812 -15.3125 C701.89766901 -15.41719648 723.0148768 -5.16331777 741 12 C753.92700441 25.34985035 761.05500662 43.02464739 768.375 59.8125 C769.24432406 61.78933009 770.11445803 63.7658042 770.98535156 65.74194336 C772.77852634 69.81380089 774.56737228 73.88751606 776.35253906 77.96289062 C778.87748204 83.72501697 781.41636952 89.48089197 783.9609375 95.234375 C784.55933189 96.58742233 784.55933189 96.58742233 785.16981506 97.96780396 C785.96721495 99.77065194 786.76466433 101.57347803 787.56216431 103.37628174 C788.75157018 106.06605087 789.93983837 108.75631953 791.12768555 111.44677734 C794.80579619 119.77761287 798.48744601 128.10683622 802.18359375 136.4296875 C802.68607887 137.56118729 802.68607887 137.56118729 803.19871521 138.71554565 C804.84063885 142.41116313 806.4850777 146.10563637 808.13354492 149.79833984 C811.19286689 156.6555189 814.23369769 163.51927631 817.21653748 170.41014099 C818.64670386 173.71133795 820.08627303 177.00839698 821.52651978 180.3052063 C822.20599201 181.8676902 822.88093955 183.43215122 823.5508728 184.99874878 C829.02688856 197.79933832 834.11646771 207.60944026 847 214 C847.63550781 214.3403125 848.27101563 214.680625 848.92578125 215.03125 C858.28465873 219.35998134 869.63685917 217.5884817 879.03125 214.31640625 C891.53416838 208.77234902 898.62042585 196.67259433 906.2421875 185.890625 C909.23673521 181.65613042 912.27281937 177.45216472 915.3125 173.25 C915.85994873 172.49267578 916.40739746 171.73535156 916.97143555 170.95507812 C918.08972075 169.4081142 919.2081296 167.86123965 920.32666016 166.31445312 C923.05263139 162.54406981 925.77621534 158.77196306 928.5 155 C929.58332144 153.49999141 930.66665479 151.99999142 931.75 150.5 C932.28625 149.7575 932.8225 149.015 933.375 148.25 C948 128 962.625 107.75 977.25 87.5 C977.78641113 86.75717773 978.32282227 86.01435547 978.87548828 85.24902344 C979.95681359 83.75200379 981.0385182 82.25525804 982.12060547 80.75878906 C984.8628675 76.96536788 987.59797742 73.16712729 990.3203125 69.359375 C993.52092891 64.88710618 996.75331241 60.43889657 1000 56 C1000.43957031 55.39236816 1000.87914062 54.78473633 1001.33203125 54.15869141 C1013.23816199 37.80619219 1027.93430105 22.93085543 1045 12 C1045.99265869 11.36143066 1045.99265869 11.36143066 1047.00537109 10.70996094 C1071.0474917 -4.53127955 1099.20873864 -15.3157847 1127.9375 -15.0625 C1131.258125 -15.041875 1134.57875 -15.02125 1138 -15 C1138 -7.41 1138 0.18 1138 8 C1132.7096875 8.3403125 1132.7096875 8.3403125 1127.3125 8.6875 C1110.11235237 10.01430126 1093.65606138 13.61174632 1078 21 C1077.33049316 21.31420898 1076.66098633 21.62841797 1075.97119141 21.95214844 C1048.57603803 35.06273145 1029.47322478 55.70858811 1012 80 C1011.53948242 80.64018066 1011.07896484 81.28036133 1010.60449219 81.93994141 C1008.577729 84.7632116 1006.55989608 87.59270091 1004.546875 90.42578125 C1001.61457267 94.54889574 998.65151724 98.64965194 995.6875 102.75 C995.13956787 103.50804932 994.59163574 104.26609863 994.02709961 105.04711914 C992.90927547 106.59333097 991.79135496 108.13947313 990.67333984 109.68554688 C987.94736861 113.45593019 985.22378466 117.22803694 982.5 121 C981.41667856 122.50000859 980.33334521 124.00000858 979.25 125.5 C978.71375 126.2425 978.1775 126.985 977.625 127.75 C967.33333333 142 957.04166667 156.25 946.75 170.5 C946.21383057 171.24241943 945.67766113 171.98483887 945.12524414 172.74975586 C944.04121584 174.2506555 942.95706858 175.75146922 941.87280273 177.25219727 C939.17412345 180.98773967 936.47748688 184.72472254 933.78515625 188.46484375 C931.63843352 191.44681902 929.48556725 194.42420986 927.328125 197.3984375 C925.00692652 200.59871056 922.70980489 203.81493643 920.421875 207.0390625 C908.44832773 223.79782119 895.43816271 236.59226452 874.48046875 240.6015625 C856.32747171 242.67968337 840.03386476 240.36154005 825.203125 228.82421875 C822.70351287 226.6313772 820.33832527 224.36320107 818 222 C817.37609375 221.40960938 816.7521875 220.81921875 816.109375 220.2109375 C812.24234126 216.25680841 809.72887034 211.82300867 807.3046875 206.890625 C806.95835266 206.19112228 806.61201782 205.49161957 806.25518799 204.7709198 C802.56066616 197.22844967 799.18766113 189.54994176 795.8480835 181.8453064 C793.90532983 177.36420918 791.94754563 172.88967031 789.9921875 168.4140625 C789.58521637 167.4815416 789.17824524 166.54902069 788.75894165 165.58824158 C784.17832597 155.10027976 779.52915654 144.64298487 774.875 134.1875 C774.03025948 132.28898733 773.18553288 130.39046847 772.34082031 128.49194336 C770.68691615 124.77521569 769.03255978 121.0586897 767.37792969 117.34228516 C764.08205402 109.93886294 760.79149706 102.53307872 757.50094604 95.12728882 C756.5140963 92.90671893 755.52678098 90.68635665 754.53930664 88.46606445 C751.81015889 82.32905476 749.08252639 76.19142695 746.36880493 70.0475769 C745.53692915 68.16438518 744.7041438 66.2815983 743.87109375 64.39892578 C742.87561265 62.14817795 741.88193983 59.89662889 740.890625 57.64404297 C732.43692776 38.54620435 722.24231559 22.32075969 702.203125 13.8125 C685.66264115 7.59839557 666.88027116 5.83613851 650.1796875 12.53125 C649.13039063 13.0159375 648.08109375 13.500625 647 14 C646.03320312 14.4228125 645.06640625 14.845625 644.0703125 15.28125 C625.84192761 24.16306927 615.02028604 41.33200135 608.49609375 59.90844727 C607.60738519 62.48864119 606.72939748 65.0723389 605.8515625 67.65625 C604.03538524 72.97075371 602.03380204 78.20317704 600 83.4375 C596.88390733 91.48226026 594.05458307 99.59071091 591.43359375 107.81030273 C589.88574018 112.60302543 588.0895405 117.14838087 585.99511719 121.72705078 C584.26740457 125.67332272 582.89486379 129.73921356 581.5 133.8125 C581.19594238 134.6890625 580.89188477 135.565625 580.57861328 136.46875 C578.96598132 141.13186516 577.39994378 145.80738845 575.875 150.5 C573.89741487 156.4744766 571.49708216 162.22635976 569 168 C568.44501437 169.30846734 567.89034281 170.61706792 567.3359375 171.92578125 C556.13582783 198.18617202 540.09142764 222.43183913 512.81640625 233.9453125 C500.58237495 238.52671118 488.91622002 241.16893928 475.875 241.4375 C466.26809349 241.75408423 457.35781696 242.7870698 448 245 C446.77410156 245.27714844 445.54820312 245.55429687 444.28515625 245.83984375 C419.72686161 251.84412775 392.91242429 264.90074122 379.109375 287.03125 C372.10233609 298.97925614 366.00965209 311.49201322 359.6774292 323.80705261 C356.72641091 329.54151633 353.72945959 335.25084373 350.70947266 340.94921875 C348.37760703 345.35674337 346.08373914 349.78153731 343.81640625 354.22265625 C331.21268408 378.85695442 320.66576898 397.81602731 293 407 C280.72481549 410.5766518 264.56486236 409.20337249 253 404 C252.07574219 403.59910156 251.15148437 403.19820312 250.19921875 402.78515625 C230.60320621 393.22274561 222.28923671 375.00723475 212.9375 356.5 C211.99698926 354.64924567 211.05582034 352.79882567 210.11401367 350.94873047 C208.70590643 348.18256665 207.29811169 345.41625155 205.89234924 342.64889526 C202.23716914 335.45417288 198.53949934 328.28282439 194.8125 321.125 C190.97966325 313.76149315 187.16973359 306.38728643 183.390625 298.99609375 C182.58231874 297.41713275 181.77396906 295.83819399 180.96557617 294.25927734 C179.78098337 291.94545964 178.59745276 289.63113813 177.4178772 287.3147583 C164.16241031 260.04154077 164.16241031 260.04154077 139.53515625 243.796875 C133.86419572 242.51855904 128.1284253 242.21842495 122.34155273 241.77929688 C104.87445811 240.36996777 90.17113419 234.72007703 77 223 C76.30132812 222.39542969 75.60265625 221.79085937 74.8828125 221.16796875 C65.87761531 212.84604528 61.04348706 202.67879397 56.8984375 191.3671875 C56.31962074 189.80513077 56.31962074 189.80513077 55.72911072 188.21151733 C51.35917504 176.36259132 47.14822214 164.45645626 42.94665527 152.54702759 C40.55018638 145.75437593 38.14383405 138.96521996 35.73828125 132.17578125 C35.49622326 131.49241133 35.25416527 130.8090414 35.00477219 130.1049633 C28.35501815 111.33354691 21.62848767 92.58996218 14.8407135 73.86801147 C13.08948045 69.0328713 11.35591836 64.19234022 9.65124512 59.34059143 C2.61159034 39.31095982 -4.4426064 23.85542502 -23.96875 13.2890625 C-32.06515752 9.8460026 -39.45697486 8.44158195 -48.25 8.5 C-49.25635498 8.50572021 -50.26270996 8.51144043 -51.29956055 8.51733398 C-65.46090844 8.85507753 -76.11541185 14.03222443 -86.6875 23.375 C-95.64157918 33.53908988 -100.7960754 43.53014575 -103.875 56.75 C-104.1212915 57.76803711 -104.36758301 58.78607422 -104.62133789 59.83496094 C-106.80475333 68.94537959 -108.8415212 78.09044833 -110.87982178 87.23425293 C-112.95097492 96.52525284 -115.15410218 105.77389557 -117.5 115 C-119.99173861 124.80005039 -122.30603858 134.62962224 -124.5 144.5 C-126.95108796 155.52716021 -129.5913677 166.49328101 -132.375 177.44140625 C-134.560755 186.09660572 -136.56317458 194.78644723 -138.5 203.5 C-140.69396246 213.37038244 -143.0084492 223.19990021 -145.5 233 C-148.29170258 243.98732707 -150.83952715 255.01506726 -153.3046875 266.07983398 C-155.4320598 275.6003626 -157.68368373 285.08626929 -160 294.5625 C-162.57844622 305.11236158 -165.10965445 315.67003193 -167.5625 326.25 C-170.10619374 337.21967924 -172.71997526 348.17039896 -175.37744141 359.11303711 C-177.1495881 366.42721469 -178.87982725 373.74969991 -180.57421875 381.08227539 C-181.73061157 386.07903045 -182.90268538 391.07203292 -184.07763672 396.06445312 C-184.71656371 398.78290585 -185.34720012 401.50313898 -185.97314453 404.22460938 C-186.80012948 407.81473284 -187.64709004 411.39968816 -188.50613403 414.98226929 C-188.82850173 416.34012593 -189.14461122 417.69948795 -189.45358276 419.06045532 C-193.39315231 436.36767285 -201.56777554 450.97407786 -216.5 461 C-221.7614982 464.08484417 -227.17331826 466.2351451 -233 468 C-233.73347656 468.22558594 -234.46695313 468.45117188 -235.22265625 468.68359375 C-239.77666148 469.95590735 -243.0889594 470 -248 470 C-248 462.08 -248 454.16 -248 446 C-245.03 445.67 -242.06 445.34 -239 445 C-229.19992241 441.36522944 -222.45943088 435.81908066 -217 427 C-216.05419919 424.50910717 -215.32213094 422.24943733 -214.6875 419.6875 C-214.48930664 418.9337207 -214.29111328 418.17994141 -214.08691406 417.40332031 C-211.05677106 405.65868533 -208.37662254 393.81963403 -205.63201904 382.00550842 C-203.63470026 373.41420817 -201.59902744 364.83207445 -199.5625 356.25 C-198.80711632 353.06514573 -198.05195615 349.88023851 -197.296875 346.6953125 C-197.10871719 345.90182404 -196.92055939 345.10833557 -196.72669983 344.290802 C-195.36014809 338.52566073 -193.99952116 332.75913742 -192.640625 326.9921875 C-191.86504206 323.70301663 -191.08896426 320.41396292 -190.3125 317.125 C-190.12312866 316.32270966 -189.93375732 315.52041931 -189.73864746 314.69381714 C-187.27502464 304.26632566 -184.7312249 293.86377879 -182.0925293 283.47900391 C-180.01606286 275.23203483 -178.20027275 266.93496984 -176.38989258 258.6262207 C-174.42618902 249.70691574 -172.24581053 240.85119006 -170 232 C-167.51895452 222.21779598 -165.14737637 212.42466126 -163 202.5625 C-160.84212416 192.65321011 -158.53269465 182.78840411 -156.125 172.9375 C-153.38927885 161.74011452 -150.69384934 150.53490139 -148.0625 139.3125 C-147.73341836 137.91023296 -147.40431671 136.50797061 -147.07519531 135.10571289 C-146.57290653 132.96525922 -146.07068773 130.82478922 -145.56863403 128.6842804 C-135.1537209 84.28430192 -135.1537209 84.28430192 -131.0246582 68.09326172 C-129.87028386 63.55543186 -128.76791528 59.01633065 -127.76953125 54.44140625 C-124.12849778 37.87411482 -119.23841064 24.05105752 -108 11 C-107.31292969 10.20078125 -106.62585938 9.4015625 -105.91796875 8.578125 C-78.13550967 -21.31765657 -32.2944944 -23.46455945 0 0 Z " transform="translate(347,169)" style="fill: #395EFB;"/></svg>