<svg width="31" height="31" viewBox="0 0 31 31" fill="none" xmlns="http://www.w3.org/2000/svg">
<path d="M19.84 19.15C20.11 19.31 20.17 19.68 19.94 19.9C19.06 20.78 17.91 21.39 16.62 21.6C16.29 21.66 15.94 21.69 15.59 21.69C15.24 21.69 14.89 21.66 14.56 21.6C13.28 21.39 12.13 20.78 11.24 19.9C11.02 19.68 11.07 19.3 11.34 19.15L12.34 18.57C12.51 18.47 12.73 18.48 12.88 18.61C13.36 19.02 13.93 19.33 14.56 19.49C14.89 19.57 15.24 19.62 15.59 19.62C15.94 19.62 16.29 19.57 16.62 19.49C17.25 19.33 17.82 19.02 18.3 18.61C18.45 18.48 18.67 18.47 18.84 18.57L19.84 19.15Z" fill="#9E77ED" stroke="#9E77ED" stroke-width="0.5" stroke-linejoin="round"/>
<path d="M21.77 15.51C21.77 16.05 21.7 16.58 21.57 17.08C21.49 17.38 21.14 17.52 20.87 17.37L19.87 16.79C19.7 16.69 19.6 16.49 19.64 16.29C19.69 16.04 19.71 15.78 19.71 15.51C19.71 15.13 19.66 14.76 19.56 14.41C19.37 13.73 19.01 13.12 18.53 12.63C18.09 12.18 17.54 11.83 16.93 11.62C16.74 11.55 16.62 11.37 16.62 11.17V10.02C16.62 9.71001 16.92 9.47001 17.22 9.55001C18.46 9.89001 19.55 10.61 20.35 11.57C20.78 12.1 21.14 12.7 21.38 13.35C21.63 14.02 21.77 14.75 21.77 15.5V15.51Z" fill="#9E77ED" stroke="#9E77ED" stroke-width="0.5" stroke-linejoin="round"/>
<path d="M14.57 10.02V11.17C14.57 11.37 14.45 11.56 14.26 11.62C13.65 11.83 13.11 12.18 12.66 12.63C12.18 13.12 11.82 13.73 11.63 14.41C11.53 14.76 11.48 15.13 11.48 15.51C11.48 15.78 11.51 16.04 11.56 16.29C11.6 16.49 11.5 16.69 11.33 16.79L10.33 17.37C10.06 17.53 9.70999 17.39 9.62999 17.08C9.49999 16.58 9.42999 16.05 9.42999 15.51C9.42999 14.75 9.55999 14.03 9.81999 13.36C10.06 12.71 10.41 12.11 10.85 11.58C11.65 10.61 12.73 9.89 13.98 9.56C14.28 9.48 14.58 9.71 14.58 10.03L14.57 10.02Z" fill="#9E77ED" stroke="#9E77ED" stroke-width="0.5" stroke-linejoin="round"/>
<path d="M25.89 15.51C25.89 17.02 25.57 18.45 24.98 19.74C24.7 20.37 24.35 20.97 23.95 21.52C22.38 23.71 19.97 25.25 17.19 25.67C16.9 25.72 16.63 25.49 16.63 25.2V24.09C16.63 23.85 16.8 23.66 17.04 23.62C19.12 23.25 20.94 22.11 22.16 20.49C22.57 19.94 22.92 19.35 23.19 18.71C23.6 17.73 23.83 16.65 23.83 15.52C23.83 14.53 23.65 13.58 23.34 12.71C23.26 12.49 23.34 12.24 23.55 12.12L24.51 11.56C24.77 11.41 25.09 11.53 25.2 11.81C25.65 12.96 25.89 14.21 25.89 15.52V15.51Z" fill="#9E77ED" stroke="#9E77ED" stroke-width="0.5" stroke-linejoin="round"/>
<path d="M23.48 9.77998L22.51 10.34C22.31 10.46 22.05 10.41 21.9 10.22C20.6 8.66998 18.74 7.60998 16.63 7.34998C16.29 7.30998 15.95 7.27998 15.6 7.27998C15.25 7.27998 14.91 7.29998 14.57 7.34998C12.46 7.60998 10.6 8.66998 9.29997 10.22C9.14997 10.4 8.88997 10.45 8.68997 10.34L7.71997 9.77998C7.45997 9.62998 7.39997 9.28998 7.58997 9.05998C9.26997 6.96998 11.75 5.55998 14.57 5.27998C14.91 5.23998 15.25 5.22998 15.6 5.22998C15.95 5.22998 16.29 5.24998 16.63 5.27998C19.45 5.55998 21.93 6.96998 23.61 9.05998C23.8 9.28998 23.74 9.62998 23.48 9.77998Z" fill="#9E77ED" stroke="#9E77ED" stroke-width="0.5" stroke-linejoin="round"/>
<path d="M14.57 24.09V25.2C14.57 25.5 14.3 25.72 14.01 25.67C11.23 25.24 8.82 23.7 7.25 21.52C6.85 20.97 6.5 20.37 6.22 19.74C5.63 18.45 5.31 17.02 5.31 15.51C5.31 14.2 5.55 12.95 6 11.8C6.11 11.52 6.43 11.41 6.69 11.55L7.65 12.11C7.85 12.23 7.94 12.47 7.86 12.7C7.54 13.58 7.37 14.53 7.37 15.52C7.37 16.65 7.6 17.73 8.01 18.72C8.28 19.36 8.62 19.95 9.04 20.49C10.27 22.11 12.08 23.25 14.16 23.62C14.39 23.66 14.57 23.86 14.57 24.09Z" fill="#9E77ED" stroke="#9E77ED" stroke-width="0.5" stroke-linejoin="round"/>
<path d="M27.08 23.33C27.32 23.47 27.4 23.79 27.23 24.02C24.8 27.34 20.98 29.58 16.63 29.88C16.29 29.91 15.95 29.92 15.6 29.92C15.25 29.92 14.91 29.91 14.57 29.88C10.21 29.57 6.4 27.34 3.97 24.02C3.8 23.79 3.88 23.47 4.12 23.33L5.08 22.77C5.29 22.65 5.56 22.71 5.71 22.9C7.77 25.65 10.94 27.51 14.57 27.81C14.91 27.84 15.25 27.85 15.6 27.85C15.95 27.85 16.29 27.83 16.63 27.81C20.26 27.51 23.44 25.65 25.49 22.9C25.64 22.7 25.9 22.64 26.12 22.77L27.08 23.33Z" fill="#9E77ED" stroke="#9E77ED" stroke-width="0.5" stroke-linejoin="round"/>
<path d="M30 15.51C30 17.58 29.56 19.55 28.78 21.33C28.67 21.59 28.35 21.68 28.11 21.54L27.14 20.98C26.93 20.86 26.85 20.6 26.94 20.37C27.58 18.88 27.94 17.23 27.94 15.5C27.94 13.61 27.52 11.83 26.76 10.23C26.47 9.61002 26.13 9.01002 25.73 8.45002C23.76 5.62002 20.64 3.65002 17.04 3.23002C16.8 3.20002 16.61 3.00002 16.61 2.76002V1.67002C16.61 1.39002 16.85 1.16002 17.13 1.19002C21.45 1.65002 25.19 4.02002 27.51 7.43002C27.64 7.62002 27.76 7.81002 27.89 8.01002L28.25 8.64002C28.35 8.82002 28.45 9.02002 28.55 9.21002C29.47 11.11 29.99 13.25 29.99 15.51H30Z" fill="#9E77ED" stroke="#9E77ED" stroke-width="0.5" stroke-linejoin="round"/>
<path d="M14.57 1.67002V2.77002C14.57 3.02002 14.38 3.22002 14.14 3.24002C10.54 3.66002 7.42 5.63002 5.45 8.46002C5.06 9.02002 4.72 9.62002 4.42 10.24C3.66 11.84 3.24 13.62 3.24 15.51C3.24 17.24 3.59 18.88 4.24 20.38C4.34 20.61 4.26 20.87 4.04 20.99L3.08 21.55C2.84 21.69 2.52 21.59 2.41 21.34C1.62 19.56 1.19 17.59 1.19 15.52C1.19 13.26 1.71 11.12 2.63 9.22002C2.72 9.03002 2.82 8.84002 2.92 8.66002L3.27 8.05002L3.3 8.00002C3.42 7.81002 3.54 7.62002 3.66 7.44002C5.98 4.02002 9.73 1.66002 14.04 1.19002C14.32 1.16002 14.56 1.39002 14.56 1.67002H14.57Z" fill="#9E77ED" stroke="#9E77ED" stroke-width="0.5" stroke-linejoin="round"/>
</svg>
