<?xml version="1.0" encoding="UTF-8"?>
<svg id="Layer_1" data-name="Layer 1" xmlns="http://www.w3.org/2000/svg" viewBox="0 0 29.19 29.11">
  <defs>
    <style>
      .cls-1 {
        fill: #9e77ed;
        stroke-width: 0px;
      }
    </style>
  </defs>
  <g>
    <path class="cls-1" d="M13.57.67v1.1c0,.25-.19.45-.43.47-3.6.42-6.72,2.39-8.69,5.22-.39.56-.73,1.16-1.03,1.78-.76,1.6-1.18,3.38-1.18,5.27,0,1.73.35,3.37,1,4.87.1.23.02.49-.2.61l-.96.56c-.24.14-.56.04-.67-.21-.79-1.78-1.22-3.75-1.22-5.82,0-2.26.52-4.4,1.44-6.3.09-.19.19-.38.29-.56h0s.35-.61.35-.61l.03-.05c.12-.19.24-.38.36-.56C4.98,3.02,8.73.66,13.04.19c.28-.03.52.2.52.48Z"/>
    <path class="cls-1" d="M13.09.19c.26,0,.47.22.47.48v1.1c0,.25-.19.45-.43.47-3.6.42-6.72,2.39-8.69,5.22-.39.56-.73,1.16-1.03,1.78-.76,1.6-1.18,3.38-1.18,5.27,0,1.73.35,3.37,1,4.87.1.23.02.49-.2.61l-.96.56c-.08.04-.16.06-.24.06-.18,0-.35-.1-.43-.28-.79-1.78-1.22-3.75-1.22-5.82,0-2.26.52-4.4,1.44-6.3.09-.19.19-.38.29-.56h0s.35-.61.35-.61l.03-.05c.12-.19.24-.38.36-.56C4.98,3.02,8.73.66,13.04.19c.02,0,.03,0,.05,0M13.09,0s-.05,0-.07,0C8.76.46,4.92,2.76,2.51,6.33c-.14.21-.26.39-.37.57l-.03.04-.35.61-.03.04h0c-.09.17-.18.34-.27.54-.97,1.99-1.46,4.14-1.46,6.38,0,2.05.42,4.04,1.24,5.9.11.24.34.39.61.39.12,0,.23-.03.34-.09l.96-.56c.29-.17.41-.54.28-.85-.65-1.51-.98-3.12-.98-4.79,0-1.82.39-3.56,1.16-5.18.29-.62.63-1.21,1.01-1.75,1.99-2.86,5.1-4.73,8.55-5.14.34-.04.6-.33.6-.66V.67c0-.37-.3-.67-.66-.67h0Z"/>
  </g>
  <g>
    <path class="cls-1" d="M29,14.51c0,2.07-.44,4.04-1.22,5.82-.11.26-.43.35-.67.21l-.97-.56c-.21-.12-.29-.38-.2-.61.64-1.49,1-3.14,1-4.87,0-1.89-.42-3.67-1.18-5.27-.29-.62-.63-1.22-1.03-1.78-1.97-2.83-5.09-4.8-8.69-5.22-.24-.03-.43-.23-.43-.47V.67c0-.28.24-.51.52-.48,4.32.46,8.06,2.83,10.38,6.24.13.19.25.38.38.58l.36.63c.1.18.2.38.3.57.92,1.9,1.44,4.04,1.44,6.3Z"/>
    <path class="cls-1" d="M16.1.19s.03,0,.05,0c4.32.46,8.06,2.83,10.38,6.24.13.19.25.38.38.58l.36.63c.1.18.2.38.3.57.92,1.9,1.44,4.04,1.44,6.3,0,2.07-.44,4.04-1.22,5.82-.08.18-.25.28-.43.28-.08,0-.16-.02-.24-.06l-.97-.56c-.21-.12-.29-.38-.2-.61.64-1.49,1-3.14,1-4.87,0-1.89-.42-3.67-1.18-5.27-.29-.62-.63-1.22-1.03-1.78-1.97-2.83-5.09-4.8-8.69-5.22-.24-.03-.43-.23-.43-.47V.67c0-.26.21-.48.47-.48M16.1,0h0c-.37,0-.66.3-.66.67v1.1c0,.34.26.62.6.66,3.45.4,6.56,2.28,8.55,5.14.38.54.72,1.13,1.01,1.75.77,1.62,1.16,3.37,1.16,5.18,0,1.67-.33,3.28-.98,4.79-.14.32-.02.68.28.85l.97.56c.1.06.22.09.34.09.26,0,.5-.15.61-.39.82-1.86,1.24-3.85,1.24-5.9,0-2.24-.49-4.39-1.46-6.38-.1-.2-.2-.39-.3-.58l-.36-.63c-.13-.2-.25-.4-.39-.59C24.27,2.76,20.44.46,16.17,0c-.02,0-.05,0-.07,0h0Z"/>
  </g>
  <g>
    <path class="cls-1" d="M26.08,22.33c.24.14.32.46.15.69-2.43,3.32-6.25,5.56-10.6,5.86-.34.03-.68.04-1.03.04s-.69-.01-1.03-.04c-4.36-.31-8.17-2.54-10.6-5.86-.17-.23-.09-.55.15-.69l.96-.56c.21-.12.48-.06.63.13,2.06,2.75,5.23,4.61,8.86,4.91.34.03.68.04,1.03.04s.69-.02,1.03-.04c3.63-.3,6.81-2.16,8.86-4.91.15-.2.41-.26.63-.13l.96.56Z"/>
    <path class="cls-1" d="M4.31,21.71c.15,0,.29.07.39.2,2.06,2.75,5.23,4.61,8.86,4.91.34.03.68.04,1.03.04s.69-.02,1.03-.04c3.63-.3,6.81-2.16,8.86-4.91.1-.13.24-.2.39-.2.08,0,.16.02.24.06l.96.56c.24.14.32.46.15.69-2.43,3.32-6.25,5.56-10.6,5.86-.34.03-.68.04-1.03.04s-.69-.01-1.03-.04c-4.35-.31-8.17-2.54-10.6-5.86-.17-.23-.09-.55.15-.69l.96-.56c.07-.04.16-.06.24-.06M4.31,21.51c-.12,0-.23.03-.33.09l-.96.56c-.17.1-.28.26-.32.45-.04.18,0,.37.11.52,2.54,3.47,6.46,5.64,10.74,5.94.33.03.67.04,1.04.04s.71-.01,1.04-.04c4.28-.3,8.2-2.47,10.74-5.94.11-.15.15-.34.11-.52-.04-.19-.16-.35-.32-.45l-.96-.56c-.1-.06-.22-.09-.33-.09-.21,0-.41.1-.54.27-2.08,2.79-5.26,4.55-8.72,4.84-.35.03-.69.04-1.01.04s-.67-.01-1.01-.04c-3.46-.28-6.64-2.05-8.72-4.84-.13-.17-.33-.27-.54-.27h0Z"/>
  </g>
  <g>
    <path class="cls-1" d="M13.57,23.09v1.11c0,.3-.27.52-.56.47-2.78-.43-5.19-1.97-6.76-4.15-.4-.55-.75-1.15-1.03-1.78-.59-1.29-.91-2.72-.91-4.23,0-1.31.24-2.56.69-3.71.11-.28.43-.39.69-.25l.96.56c.2.12.29.36.21.59-.32.88-.49,1.83-.49,2.82,0,1.13.23,2.21.64,3.2.27.64.61,1.23,1.03,1.77,1.23,1.62,3.04,2.76,5.12,3.13.23.04.41.24.41.47Z"/>
    <path class="cls-1" d="M5.45,10.49c.08,0,.16.02.24.06l.96.56c.2.12.29.36.21.59-.32.88-.49,1.83-.49,2.82,0,1.13.23,2.21.64,3.2.27.64.61,1.23,1.03,1.77,1.23,1.62,3.04,2.76,5.12,3.13.23.04.41.24.41.47v1.11c0,.27-.22.48-.48.48-.03,0-.05,0-.08,0-2.78-.43-5.19-1.97-6.76-4.15-.4-.55-.75-1.15-1.03-1.78-.59-1.29-.91-2.72-.91-4.23,0-1.31.24-2.56.69-3.71.08-.19.26-.31.45-.31M5.45,10.3h0c-.28,0-.53.17-.63.43-.47,1.2-.7,2.47-.7,3.78,0,1.51.31,2.96.93,4.31.29.64.64,1.25,1.05,1.81,1.63,2.27,4.14,3.81,6.89,4.23.04,0,.07,0,.11,0,.37,0,.68-.3.68-.67v-1.11c0-.33-.24-.6-.57-.66-2-.35-3.77-1.44-5-3.06-.41-.53-.74-1.11-1.01-1.73-.42-.99-.63-2.04-.63-3.12,0-.94.16-1.87.48-2.75.11-.31,0-.66-.29-.82l-.96-.56c-.1-.06-.22-.09-.33-.09h0Z"/>
  </g>
  <g>
    <path class="cls-1" d="M22.48,8.78l-.97.56c-.2.12-.46.07-.61-.12-1.3-1.55-3.16-2.61-5.27-2.87-.34-.04-.68-.07-1.03-.07s-.69.02-1.03.07c-2.11.26-3.97,1.32-5.27,2.87-.15.18-.41.23-.61.12l-.97-.56c-.26-.15-.32-.49-.13-.72,1.68-2.09,4.16-3.5,6.98-3.78.34-.04.68-.05,1.03-.05s.69.02,1.03.05c2.82.28,5.3,1.69,6.98,3.78.19.23.13.57-.13.72Z"/>
    <path class="cls-1" d="M14.6,4.22c.35,0,.69.02,1.03.05,2.82.28,5.3,1.69,6.98,3.78.19.23.13.57-.13.72l-.97.56c-.07.04-.15.06-.23.06-.14,0-.28-.06-.38-.18-1.3-1.55-3.16-2.61-5.27-2.87-.34-.04-.68-.07-1.03-.07s-.69.02-1.03.07c-2.11.26-3.97,1.32-5.27,2.87-.1.12-.24.18-.38.18-.08,0-.16-.02-.23-.06l-.97-.56c-.26-.15-.32-.49-.13-.72,1.68-2.09,4.16-3.5,6.98-3.78.34-.04.68-.05,1.03-.05M14.6,4.03c-.38,0-.73.02-1.05.06-2.81.27-5.33,1.64-7.11,3.85-.13.16-.18.36-.14.55.04.19.15.36.32.46l.97.56c.1.06.22.09.33.09.2,0,.39-.09.52-.25,1.31-1.56,3.14-2.55,5.15-2.8.34-.04.67-.06,1.01-.06s.66.02,1.01.06c2.01.25,3.84,1.25,5.15,2.8.13.16.32.25.52.25.12,0,.23-.03.33-.09l.97-.56c.17-.1.29-.26.32-.46.04-.2-.01-.4-.14-.55-1.78-2.21-4.3-3.57-7.11-3.85-.32-.04-.67-.05-1.05-.05h0Z"/>
  </g>
  <g>
    <path class="cls-1" d="M24.89,14.51c0,1.51-.32,2.94-.91,4.23-.28.63-.63,1.23-1.03,1.78-1.57,2.19-3.98,3.73-6.76,4.15-.29.05-.56-.18-.56-.47v-1.11c0-.24.17-.43.41-.47,2.08-.37,3.9-1.51,5.12-3.13.41-.55.76-1.14,1.03-1.78.41-.98.64-2.06.64-3.19,0-.99-.18-1.94-.49-2.81-.08-.22,0-.47.21-.59l.96-.56c.26-.15.58-.03.69.25.45,1.15.69,2.4.69,3.71Z"/>
    <path class="cls-1" d="M23.74,10.49c.19,0,.38.12.45.31.45,1.15.69,2.4.69,3.71,0,1.51-.32,2.94-.91,4.23-.28.63-.63,1.23-1.03,1.78-1.57,2.19-3.98,3.73-6.76,4.15-.03,0-.05,0-.08,0-.26,0-.48-.21-.48-.48v-1.11c0-.24.17-.43.41-.47,2.08-.37,3.9-1.51,5.12-3.13.41-.55.76-1.14,1.03-1.78.41-.98.64-2.06.64-3.19,0-.99-.18-1.94-.49-2.81-.08-.22,0-.47.21-.59l.96-.56c.08-.04.16-.06.24-.06M23.74,10.3h0c-.12,0-.23.03-.33.09l-.96.56c-.28.16-.4.51-.29.82.32.88.48,1.81.48,2.75,0,1.08-.21,2.13-.63,3.12-.26.62-.6,1.2-1.01,1.74-1.23,1.62-3.01,2.71-5,3.06-.33.06-.57.34-.57.66v1.11c0,.37.3.67.68.67.03,0,.07,0,.11,0,2.75-.42,5.26-1.96,6.89-4.23.4-.55.76-1.16,1.05-1.81.61-1.35.92-2.8.92-4.31,0-1.31-.24-2.58-.7-3.78-.1-.26-.35-.43-.63-.43h0Z"/>
  </g>
  <g>
    <path class="cls-1" d="M18.84,18.15c.27.16.33.53.1.75-.88.88-2.03,1.49-3.32,1.7-.33.06-.68.09-1.03.09s-.7-.03-1.03-.09c-1.28-.21-2.43-.82-3.32-1.7-.22-.22-.17-.6.1-.75l1-.58c.17-.1.39-.09.54.04.48.41,1.05.72,1.68.88.33.08.68.13,1.03.13s.7-.05,1.03-.13c.63-.16,1.2-.47,1.68-.88.15-.13.37-.14.54-.04l1,.58Z"/>
    <path class="cls-1" d="M17.6,17.51c.08,0,.17.02.25.07l1,.58c.27.16.33.53.1.75-.88.88-2.03,1.49-3.32,1.7-.33.06-.68.09-1.03.09s-.7-.03-1.03-.09c-1.28-.21-2.43-.82-3.32-1.7-.22-.22-.17-.6.1-.75l1-.58c.08-.04.16-.07.25-.07.11,0,.21.04.3.11.48.41,1.05.72,1.68.88.33.08.68.13,1.03.13s.7-.05,1.03-.13c.63-.16,1.2-.47,1.68-.88.08-.07.19-.11.3-.11M17.6,17.31h0c-.16,0-.31.06-.42.16-.46.4-1.01.69-1.6.84-.32.08-.65.12-.98.12s-.66-.04-.98-.12c-.58-.15-1.14-.44-1.6-.84-.12-.1-.26-.16-.42-.16-.12,0-.24.03-.34.09l-1,.58c-.18.11-.3.29-.33.5-.03.21.04.41.19.56.94.93,2.12,1.54,3.42,1.75.35.06.71.09,1.06.09s.71-.03,1.06-.09c1.3-.21,2.48-.82,3.42-1.75.15-.15.22-.35.19-.56-.03-.21-.15-.39-.33-.5l-1-.58c-.1-.06-.22-.09-.34-.09h0Z"/>
  </g>
  <g>
    <path class="cls-1" d="M13.57,9.02v1.15c0,.2-.12.39-.31.45-.61.21-1.15.56-1.6,1.01-.48.49-.84,1.1-1.03,1.78-.1.35-.15.72-.15,1.1,0,.27.03.53.08.78.04.2-.06.4-.23.5l-1,.58c-.27.16-.62.02-.7-.29-.13-.5-.2-1.03-.2-1.57,0-.76.13-1.48.39-2.15.24-.65.59-1.25,1.03-1.78.8-.97,1.88-1.69,3.13-2.02.3-.08.6.15.6.47Z"/>
    <path class="cls-1" d="M13.09,8.54c.26,0,.48.21.48.48v1.15c0,.2-.12.39-.31.45-.61.21-1.15.56-1.6,1.01-.48.49-.84,1.1-1.03,1.78-.1.35-.15.72-.15,1.1,0,.27.03.53.08.78.04.2-.06.4-.23.5l-1,.58c-.08.04-.16.06-.24.06-.21,0-.4-.13-.46-.35-.13-.5-.2-1.03-.2-1.57,0-.76.13-1.48.39-2.15.24-.65.59-1.25,1.03-1.78.8-.97,1.88-1.69,3.13-2.02.04-.01.08-.02.12-.02M13.09,8.35h0c-.06,0-.12,0-.17.02-1.27.34-2.39,1.07-3.23,2.09-.46.56-.82,1.18-1.06,1.83-.26.7-.4,1.45-.4,2.22,0,.55.07,1.1.21,1.62.08.29.34.49.65.49.12,0,.23-.03.34-.09l1-.58c.25-.14.38-.42.32-.7-.05-.25-.07-.5-.07-.75,0-.37.05-.72.14-1.05.18-.64.51-1.23.98-1.7.43-.43.96-.77,1.52-.96.26-.09.44-.34.44-.63v-1.15c0-.37-.3-.67-.67-.67h0Z"/>
  </g>
  <g>
    <path class="cls-1" d="M20.77,14.51c0,.54-.07,1.07-.2,1.57-.08.3-.43.44-.7.29l-1-.58c-.17-.1-.27-.3-.23-.5.05-.25.07-.51.07-.78,0-.38-.05-.75-.15-1.1-.19-.68-.55-1.29-1.03-1.78-.44-.45-.99-.8-1.6-1.01-.19-.07-.31-.25-.31-.45v-1.15c0-.31.3-.55.6-.47,1.24.34,2.33,1.06,3.13,2.02.43.53.79,1.13,1.03,1.78.25.67.39,1.4.39,2.15Z"/>
    <path class="cls-1" d="M16.1,8.54s.08,0,.12.02c1.24.34,2.33,1.06,3.13,2.02.43.53.79,1.13,1.03,1.78.25.67.39,1.4.39,2.15,0,.54-.07,1.07-.2,1.57-.06.22-.25.35-.46.35-.08,0-.16-.02-.24-.06l-1-.58c-.17-.1-.27-.3-.23-.5.05-.25.07-.51.07-.78,0-.38-.05-.75-.15-1.1-.19-.68-.55-1.29-1.03-1.78-.44-.45-.99-.8-1.6-1.01-.19-.07-.31-.25-.31-.45v-1.15c0-.27.22-.48.48-.48M16.1,8.35h0c-.37,0-.67.3-.67.67v1.15c0,.29.18.54.44.63.57.2,1.1.53,1.53.96.46.47.8,1.06.98,1.7.09.33.14.69.14,1.05,0,.25-.02.5-.07.74-.05.27.08.56.32.7l1,.58c.1.06.22.09.34.09.3,0,.57-.2.65-.49.14-.52.21-1.06.21-1.62,0-.77-.13-1.52-.4-2.22-.24-.65-.59-1.27-1.06-1.83-.84-1.02-1.96-1.74-3.23-2.09-.06-.02-.12-.02-.17-.02h0Z"/>
  </g>
</svg>