<svg width="124" height="64" viewBox="0 0 124 64" fill="none" xmlns="http://www.w3.org/2000/svg">
<g clip-path="url(#clip0_32_14)">
<mask id="mask0_32_14" style="mask-type:alpha" maskUnits="userSpaceOnUse" x="1" y="1" width="122" height="62">
<path d="M122.92 1.1L121.21 11.73H118.86L117.05 16.69L114.76 20.25L109.91 23.35L106.94 27.72L102.33 23.51L99.98 20.28L96.44 27.75L92.92 27.69L89.9 20.35L86.27 17.12L83.85 13.99H81.84L73.8 20.38L72.03 27.75L66.69 31.04L64.15 34.11L61.22 39.25L58.17 46.44L56.88 46.47L53.55 46.97L50.32 39.62L47.26 34.17L45.43 34.05L42.44 31.04L38.46 34.08L34.19 34.2L29.73 40.12L26.19 45.79L23.16 52.3L19.93 55.46L15.59 52.3L8.66 58.66L5.39 55.59L1.08 62.9H122.92V1.1Z" fill="url(#paint0_linear_32_14)"/>
</mask>
<g mask="url(#mask0_32_14)">
<path opacity="0.2" d="M122.92 1.1L121.21 11.73H118.86L117.05 16.69L114.76 20.25L109.91 23.35L106.94 27.72L102.33 23.51L99.98 20.28L96.44 27.75L92.92 27.69L89.9 20.35L86.27 17.12L83.85 13.99H81.84L73.8 20.38L72.03 27.75L66.69 31.04L64.15 34.11L61.22 39.25L58.17 46.44L56.88 46.47L53.55 46.97L50.32 39.62L47.26 34.17L45.43 34.05L42.44 31.04L38.46 34.08L34.19 34.2L29.73 40.12L26.19 45.79L23.16 52.3L19.93 55.46L15.59 52.3L8.66 58.66L5.39 55.59L1.08 62.9H122.92V1.1Z" fill="#049455"/>
</g>
<path d="M81.98 23.95C87.0721 23.95 91.2 19.7594 91.2 14.59C91.2 9.42061 87.0721 5.23 81.98 5.23C76.8879 5.23 72.76 9.42061 72.76 14.59C72.76 19.7594 76.8879 23.95 81.98 23.95Z" fill="white"/>
<path d="M81.98 25.05C76.3 25.05 71.67 20.36 71.67 14.59C71.67 8.82 76.29 4.13 81.98 4.13C87.67 4.13 92.29 8.82 92.29 14.59C92.29 20.36 87.67 25.05 81.98 25.05ZM81.98 6.33C77.49 6.33 73.84 10.04 73.84 14.59C73.84 19.14 77.49 22.85 81.98 22.85C86.47 22.85 90.12 19.14 90.12 14.59C90.12 10.04 86.47 6.33 81.98 6.33Z" fill="#D2EBDE"/>
<path d="M1.08 64C0.889999 64 0.699999 63.95 0.529999 63.84C0.0199994 63.53 -0.150001 62.86 0.159999 62.33L4.47 55.02C4.64 54.74 4.92 54.54 5.24 54.5C5.56 54.45 5.89 54.56 6.13 54.78L8.67 57.17L14.87 51.49C15.25 51.14 15.81 51.11 16.23 51.41L19.84 54.04L22.28 51.65L25.22 45.32C25.22 45.32 25.26 45.24 25.28 45.2L28.82 39.53C28.82 39.53 28.86 39.48 28.87 39.45L33.33 33.53C33.53 33.27 33.83 33.11 34.16 33.1L38.09 32.99L41.79 30.16C42.22 29.83 42.82 29.87 43.2 30.26L45.91 32.98L47.34 33.08C47.7 33.1 48.03 33.31 48.21 33.63L51.26 39.09C51.26 39.09 51.29 39.15 51.31 39.18L54.21 45.77L56.73 45.39C56.73 45.39 56.82 45.38 56.86 45.38H57.45L60.23 38.82C60.25 38.78 60.27 38.74 60.29 38.7L63.22 33.55C63.25 33.5 63.29 33.44 63.33 33.39L65.87 30.32C65.95 30.23 66.04 30.15 66.14 30.09L71.1 27.04L72.77 20.11C72.83 19.87 72.96 19.66 73.15 19.51L81.18 13.13C81.37 12.98 81.61 12.9 81.85 12.9H83.87C84.2 12.9 84.52 13.06 84.72 13.32L87.07 16.37L90.63 19.53C90.75 19.64 90.85 19.78 90.92 19.93L93.67 26.61L95.78 26.65L99.02 19.81C99.18 19.46 99.52 19.23 99.89 19.19C100.27 19.15 100.64 19.32 100.86 19.63L103.15 22.76L106.76 26.06L109.02 22.72C109.1 22.6 109.21 22.49 109.34 22.41L114 19.44L116.09 16.18L117.85 11.34C118.01 10.91 118.41 10.62 118.86 10.62H120.29L121.85 0.909998C121.95 0.309998 122.5 -0.090002 123.09 -2.00979e-06C123.68 0.099998 124.08 0.659998 123.98 1.26L122.27 11.89C122.18 12.42 121.73 12.81 121.2 12.81H119.6L118.06 17.05C118.03 17.13 118 17.2 117.95 17.27L115.66 20.83C115.57 20.96 115.46 21.08 115.33 21.16L110.66 24.14L107.82 28.32C107.64 28.58 107.36 28.75 107.06 28.79C106.75 28.83 106.44 28.73 106.21 28.52L101.6 24.3C101.55 24.25 101.5 24.2 101.45 24.14L100.16 22.38L97.39 28.21C97.21 28.6 96.82 28.84 96.4 28.83L92.89 28.77C92.46 28.77 92.08 28.5 91.91 28.1L88.98 20.99L85.53 17.93C85.48 17.88 85.43 17.83 85.39 17.78L83.3 15.07H82.18L74.74 20.99L73.06 28C72.99 28.28 72.82 28.53 72.57 28.68L67.38 31.87L65.02 34.73L62.17 39.74L59.14 46.87C58.97 47.26 58.59 47.52 58.17 47.53L56.95 47.56L53.69 48.05C53.21 48.12 52.74 47.86 52.55 47.41L49.33 40.11L46.59 35.21L45.34 35.13C45.08 35.11 44.84 35 44.65 34.81L42.32 32.47L39.09 34.94C38.91 35.08 38.69 35.15 38.47 35.16L34.71 35.27L30.59 40.74L27.11 46.31L24.12 52.76C24.06 52.88 23.99 52.99 23.89 53.08L20.65 56.24C20.27 56.61 19.69 56.65 19.27 56.34L15.64 53.7L9.35 59.46C8.93 59.84 8.3 59.84 7.89 59.46L5.6 57.31L1.98 63.46C1.78 63.8 1.42 63.99 1.05 63.99L1.08 64Z" fill="#15B26A"/>
<path d="M81.98 19.46C84.631 19.46 86.78 17.2796 86.78 14.59C86.78 11.9004 84.631 9.72 81.98 9.72C79.329 9.72 77.18 11.9004 77.18 14.59C77.18 17.2796 79.329 19.46 81.98 19.46Z" fill="white"/>
<path d="M81.98 20.56C78.74 20.56 76.1 17.88 76.1 14.6C76.1 11.32 78.74 8.64 81.98 8.64C85.22 8.64 87.86 11.32 87.86 14.6C87.86 17.88 85.22 20.56 81.98 20.56ZM81.98 10.82C79.93 10.82 78.27 12.51 78.27 14.59C78.27 16.67 79.94 18.36 81.98 18.36C84.02 18.36 85.69 16.67 85.69 14.59C85.69 12.51 84.02 10.82 81.98 10.82Z" fill="#15B26A"/>
</g>
<defs>
<linearGradient id="paint0_linear_32_14" x1="62" y1="1.1" x2="62" y2="62.9" gradientUnits="userSpaceOnUse">
<stop/>
<stop offset="1" stop-opacity="0"/>
</linearGradient>
<clipPath id="clip0_32_14">
<rect width="124" height="64" fill="white"/>
</clipPath>
</defs>
</svg>
