<?xml version="1.0" encoding="UTF-8" standalone="no"?>
<!-- Created with Inkscape (http://www.inkscape.org/) -->

<svg
   width="37.030609mm"
   height="10.567395mm"
   viewBox="0 0 37.030609 10.567395"
   version="1.1"
   id="svg1"
   xmlns="http://www.w3.org/2000/svg"
   xmlns:svg="http://www.w3.org/2000/svg">
  <defs
     id="defs1" />
  <g
     id="layer1"
     transform="translate(-25.3133,-115.9682)">
    <path
       d="m 26.868619,124.48229 q -1.555319,0 -1.555319,-1.31789 0,-0.22549 0.08309,-0.66487 l 0.605506,-2.86129 q 0.01197,-0.0374 0.01197,-0.095 0,-0.178 -0.213708,-0.178 h -0.189963 q -0.130618,0 -0.201854,-0.071 -0.05938,-0.083 -0.05938,-0.20193 0,-0.21352 0.27309,-0.51054 0.284944,-0.29691 0.807342,-0.71236 1.139776,-0.92607 1.60281,-0.92607 0.118727,0 0.166217,0.0475 0.05938,0.0475 0.05938,0.14247 0,0.095 -0.03552,0.23745 l -0.130581,0.68862 q -0.07124,0.29691 -0.07124,0.40367 0,0.083 0.03553,0.10695 0.03552,0.0224 0.130618,0.0224 h 1.436481 q 0.130618,0 0.189962,0.0224 0.05935,0.0224 0.05935,0.11891 0,0.29692 -0.166217,0.46302 -0.166218,0.16603 -0.403671,0.16603 h -1.199121 q -0.308689,0 -0.368034,0.28494 l -0.546143,2.60014 q -0.03552,0.18996 -0.03552,0.35637 0,0.33243 0.154363,0.5105 0.166217,0.178 0.474907,0.178 0.237453,0 0.53427,-0.11892 0.296798,-0.11891 0.546143,-0.36796 0.130618,-0.11891 0.249344,-0.11891 0.08309,0 0.130619,0.0595 0.04749,0.0475 0.04749,0.1305 0,0.071 -0.02356,0.11892 -0.344326,0.7361 -0.961686,1.11603 -0.605507,0.36796 -1.436593,0.36796 z m 4.416633,0.0112 q -0.807341,0 -1.234757,-0.49865 -0.415544,-0.49865 -0.415544,-1.35348 0,-0.97356 0.379926,-1.93523 0.391798,-0.97356 1.127903,-1.60283 0.736106,-0.62923 1.73341,-0.62923 0.605506,0 1.211013,0.41552 0.344288,0.18997 0.593633,0.18997 0.118727,0 0.213708,-0.0475 0.09498,-0.0595 0.261199,-0.20193 0.225562,-0.21352 0.332435,-0.28495 0.118726,-0.083 0.249344,-0.083 0.118727,0 0.178072,0.0594 0.07124,0.0595 0.07124,0.16604 0,0.0714 -0.01197,0.10694 l -0.807342,3.75177 q -0.02393,0.083 -0.02393,0.24942 0,0.35636 0.27309,0.35636 0.154326,0 0.27309,-0.11891 0.130618,-0.11891 0.27309,-0.36796 0.106835,-0.095 0.225562,-0.095 0.09498,0 0.142472,0.071 0.05938,0.0594 0.05938,0.17799 0,0.14248 -0.08309,0.30851 -0.249345,0.59363 -0.71236,0.98541 -0.451162,0.37992 -1.044795,0.37992 -0.546143,0 -0.831087,-0.29691 -0.284944,-0.3085 -0.284944,-0.78359 0,-0.13051 0.01197,-0.20193 v -0.0224 q 0,-0.11891 -0.07124,-0.11891 -0.05938,0 -0.106873,0.083 -0.427416,0.59364 -0.902322,0.97356 -0.463035,0.36796 -1.080413,0.36796 z m 0.866705,-1.34159 q 0.48678,0 0.926069,-0.55803 0.439288,-0.56989 0.605506,-1.22287 0.130618,-0.4868 0.166217,-0.748 0.04749,-0.26138 0.04749,-0.48676 0,-0.4393 -0.213708,-0.66487 -0.201854,-0.23745 -0.546143,-0.23745 -0.463034,0 -0.84296,0.47491 -0.379925,0.46301 -0.593633,1.12788 -0.213708,0.66487 -0.213708,1.21101 0,0.5224 0.178109,0.81924 0.178071,0.28494 0.486779,0.28494 z m 6.577456,3.38369 q -1.294121,0 -1.935245,-0.56988 -0.427417,-0.26102 -0.427417,-0.70047 0,-0.27298 0.178109,-0.47491 0.166218,-0.18996 0.439289,-0.18996 0.474907,0 0.771723,0.46301 0.178072,0.29691 0.439289,0.46306 0.261199,0.17799 0.736106,0.17799 0.688615,0 1.104158,-0.49865 0.415544,-0.48676 0.617379,-1.46032 l 0.142472,-0.67676 q 0.01197,-0.0374 0.01197,-0.083 0,-0.095 -0.05935,-0.095 -0.04749,0 -0.106872,0.095 -0.391798,0.558 -0.89045,0.91418 -0.48678,0.35599 -1.163522,0.35599 -0.819214,0 -1.234758,-0.46301 -0.415543,-0.47491 -0.415543,-1.29414 0,-0.99731 0.379925,-1.92337 0.379926,-0.92607 1.116031,-1.50781 0.736106,-0.59364 1.757155,-0.59364 0.379926,0 0.629252,0.10695 0.249307,0.10695 0.581761,0.32047 0.118726,0.071 0.284944,0.1305 0.178071,0.0475 0.27309,0.0475 0.118726,0 0.213708,-0.0475 0.09498,-0.0594 0.261199,-0.20192 0.237453,-0.21353 0.344326,-0.28495 0.118726,-0.083 0.237453,-0.083 0.154364,0 0.213708,0.095 0.05938,0.095 0.03552,0.23745 l -1.044795,4.90343 q -0.332435,1.5553 -1.317867,2.19643 -0.973559,0.64112 -2.172698,0.64112 z m 0.831087,-3.62114 q 0.486779,0 0.878577,-0.49865 0.391798,-0.49866 0.546143,-1.11604 0.130618,-0.46305 0.166217,-0.68861 0.03552,-0.23745 0.03552,-0.47491 0,-0.42741 -0.201854,-0.66487 -0.189963,-0.23745 -0.522398,-0.23745 -0.463034,0 -0.842959,0.43927 -0.379926,0.43931 -0.593634,1.08043 -0.213708,0.62923 -0.213708,1.16352 0,0.49866 0.189963,0.74796 0.201854,0.24942 0.558015,0.24942 z m 5.69887,3.62114 q -1.294121,0 -1.935245,-0.56988 -0.427416,-0.26102 -0.427416,-0.70047 0,-0.27298 0.178071,-0.47491 0.166217,-0.18996 0.439289,-0.18996 0.474907,0 0.771723,0.46301 0.178109,0.29691 0.439289,0.46306 0.261199,0.17799 0.736106,0.17799 0.688614,0 1.104158,-0.49865 0.415543,-0.48676 0.617379,-1.46032 l 0.142472,-0.67676 q 0.01197,-0.0374 0.01197,-0.083 0,-0.095 -0.05938,-0.095 -0.04749,0 -0.106835,0.095 -0.391799,0.558 -0.890451,0.91418 -0.486779,0.35599 -1.163521,0.35599 -0.819215,0 -1.234758,-0.46301 -0.415543,-0.47491 -0.415543,-1.29414 0,-0.99731 0.379925,-1.92337 0.379925,-0.92607 1.116031,-1.50781 0.736105,-0.59364 1.757155,-0.59364 0.379926,0 0.629252,0.10695 0.249344,0.10695 0.58176,0.32047 0.118727,0.071 0.284945,0.1305 0.178108,0.0475 0.27309,0.0475 0.118726,0 0.213708,-0.0475 0.09498,-0.0594 0.261198,-0.20192 0.237454,-0.21353 0.344289,-0.28495 0.118727,-0.083 0.237454,-0.083 0.154326,0 0.213708,0.095 0.05938,0.095 0.03552,0.23745 l -1.044795,4.90343 q -0.332435,1.5553 -1.317866,2.19643 -0.973559,0.64112 -2.172699,0.64112 z m 0.831087,-3.62114 q 0.486779,0 0.878577,-0.49865 0.391798,-0.49866 0.546143,-1.11604 0.130618,-0.46305 0.166218,-0.68861 0.03552,-0.23745 0.03552,-0.47491 0,-0.42741 -0.201854,-0.66487 -0.189963,-0.23745 -0.522397,-0.23745 -0.463035,0 -0.84296,0.43927 -0.379925,0.43931 -0.593634,1.08043 -0.213708,0.62923 -0.213708,1.16352 0,0.49866 0.189963,0.74796 0.201817,0.24942 0.558016,0.24942 z m 6.233144,1.57904 q -1.080413,0 -1.697792,-0.61737 -0.605506,-0.61738 -0.605506,-1.62654 0,-0.97356 0.463034,-1.85214 0.474907,-0.87858 1.294121,-1.41286 0.831087,-0.53426 1.840264,-0.53426 0.71236,0 1.163522,0.39178 0.463034,0.37993 0.463034,0.96171 0,0.59363 -0.27309,1.00916 -0.27309,0.41556 -0.961687,0.7005 -0.688614,0.28495 -1.911499,0.43927 -0.106873,0.0112 -0.154326,0.0714 -0.03553,0.0475 -0.01197,0.20192 0.05935,0.46302 0.332435,0.7836 0.27309,0.32047 0.866705,0.32047 0.368034,0 0.688615,-0.178 0.320543,-0.17799 0.641124,-0.4868 0.130618,-0.10694 0.249307,-0.10694 0.09498,0 0.154364,0.0594 0.05935,0.0595 0.05935,0.16603 0,0.083 -0.04749,0.178 -0.332435,0.66487 -0.997304,1.10414 -0.652997,0.42742 -1.55532,0.42742 z m -0.189963,-3.20562 q 0.807342,-0.1664 1.305994,-0.45116 0.510525,-0.29691 0.522397,-0.92607 0,-0.67672 -0.558015,-0.67672 -0.368034,0 -0.700488,0.3085 -0.320543,0.3085 -0.522397,0.77171 -0.201854,0.45116 -0.237453,0.83108 v 0.0374 q 0,0.1305 0.08309,0.1305 0.03552,0 0.106835,-0.0224 z m 4.998402,3.20562 q -0.807342,0 -1.234758,-0.49865 -0.427416,-0.49865 -0.427416,-1.35348 0,-0.97356 0.379925,-1.93523 0.391799,-0.97356 1.116031,-1.60283 0.736106,-0.62923 1.697792,-0.62923 0.427416,0 0.700488,0.11891 0.27309,0.11854 0.439288,0.26101 0.166218,0.13051 0.201817,0.13051 0.02393,0 0.03552,-0.0475 0.02356,-0.0475 0.04749,-0.11891 l 0.225562,-1.12789 q 0.03552,-0.14247 0.03552,-0.27298 0,-0.26101 -0.225562,-0.35599 -0.08309,-0.0374 -0.225562,-0.0714 -0.130618,-0.0475 -0.201854,-0.095 -0.05938,-0.0475 -0.05938,-0.11892 0,-0.17799 0.130618,-0.26138 0.142472,-0.095 0.427416,-0.18997 1.317866,-0.35636 1.757155,-0.35636 0.213708,0 0.296798,0.0594 0.09498,0.0595 0.09498,0.21352 0,0.083 -0.01197,0.14248 l -1.329739,6.26877 q -0.02356,0.11891 -0.02356,0.20193 0,0.29691 0.261199,0.29691 0.178071,0 0.296798,-0.10695 0.118726,-0.10695 0.296798,-0.37993 0.09498,-0.083 0.201854,-0.083 0.09498,0 0.142472,0.0594 0.05938,0.0595 0.05938,0.178 0,0.14247 -0.08309,0.3085 -0.27309,0.59364 -0.724233,0.98542 -0.439289,0.37992 -1.032922,0.37992 -0.53427,0 -0.819214,-0.29691 -0.284944,-0.3085 -0.284944,-0.79549 0,-0.14247 0.01197,-0.21352 v -0.0224 q 0,-0.10695 -0.05938,-0.10695 -0.04749,0 -0.118727,0.095 -0.427416,0.58174 -0.902323,0.96167 -0.474907,0.37992 -1.092286,0.37992 z m 0.866705,-1.34159 q 0.486779,0 0.926068,-0.55803 0.451161,-0.56989 0.617379,-1.22287 0.142472,-0.47491 0.178071,-0.7361 0.04749,-0.27298 0.04749,-0.49866 0,-0.42741 -0.213708,-0.66487 -0.201854,-0.23745 -0.546143,-0.23745 -0.474907,0 -0.854832,0.46302 -0.379926,0.46305 -0.605506,1.12792 -0.213709,0.66487 -0.213709,1.21101 0,0.53425 0.178072,0.83109 0.178109,0.28494 0.486779,0.28494 z"
       id="text1-7"
       style="font-style:italic;font-weight:600;font-size:3.175px;font-family:'Bogart Trial';-inkscape-font-specification:'Bogart Trial Semi-Bold Italic';font-variation-settings:normal;vector-effect:none;fill:#000000;fill-opacity:1;stroke-width:0.989388;stroke-linecap:butt;stroke-linejoin:miter;stroke-miterlimit:4;stroke-dasharray:none;stroke-dashoffset:0;stroke-opacity:1;-inkscape-stroke:none;stop-color:#000000"
       aria-label="tagged" />
  </g>
</svg>
