<svg width="140" height="40" viewBox="0 0 140 40" fill="none" xmlns="http://www.w3.org/2000/svg">
<path d="M5.87838 32.1792C1.95946 32.1792 0 30.5189 0 27.1982C0 26.6301 0.104687 25.7924 0.314047 24.6853L2.60257 13.871C2.63273 13.7768 2.64781 13.6571 2.64781 13.512C2.64781 13.0635 2.37857 12.8392 1.84009 12.8392H1.12213C0.79301 12.8392 0.538703 12.7498 0.359211 12.5709C0.209592 12.3617 0.134784 12.1073 0.134784 11.8076C0.134784 11.2696 0.478836 10.6265 1.16694 9.87806C1.88491 9.12994 2.90203 8.23247 4.21831 7.18566C7.09019 4.85226 9.10947 3.68555 10.2762 3.68555C10.5753 3.68555 10.7847 3.7454 10.9044 3.86508C11.054 3.98477 11.1288 4.16426 11.1288 4.40356C11.1288 4.64293 11.0841 4.94207 10.9946 5.301L10.501 7.90367C10.3215 8.65179 10.2318 9.16035 10.2318 9.42935C10.2318 9.63849 10.2765 9.77322 10.3661 9.83357C10.4556 9.89001 10.6201 9.91823 10.8597 9.91823H16.289C16.6181 9.91823 16.8574 9.94645 17.0069 10.0029C17.1565 10.0593 17.2312 10.2091 17.2312 10.4523C17.2312 11.2005 17.0218 11.7838 16.603 12.2023C16.1842 12.6207 15.6756 12.8298 15.0773 12.8298H10.5452C9.76743 12.8298 9.30377 13.1888 9.15424 13.9068L7.09007 23.7341C7.00057 24.2127 6.95582 24.6617 6.95582 25.081C6.95582 25.9186 7.1503 26.5617 7.53924 27.0104C7.95806 27.4589 8.55637 27.6832 9.33417 27.6832C9.93248 27.6832 10.6056 27.5334 11.3535 27.2337C12.1013 26.9341 12.7893 26.4705 13.4176 25.843C13.7467 25.5434 14.0609 25.3936 14.36 25.3936C14.5694 25.3936 14.7339 25.4686 14.8537 25.6185C14.9734 25.7382 15.0332 25.9026 15.0332 26.1117C15.0332 26.2906 15.0035 26.4404 14.9441 26.5612C14.0765 28.4159 12.865 29.8219 11.3094 30.7792C9.78374 31.7064 7.97386 32.1699 5.87978 32.1699L5.87838 32.1792ZM22.5712 32.2216C20.5369 32.2216 18.9813 31.5934 17.9044 30.3369C16.8573 29.0805 16.3338 27.3753 16.3338 25.2214C16.3338 22.7683 16.8124 20.3302 17.7697 17.9071C18.757 15.4541 20.1779 13.4348 22.0327 11.8492C23.8874 10.2637 26.0713 9.47099 28.5842 9.47099C30.1098 9.47099 31.6355 9.99448 33.1612 11.0415C34.0287 11.5201 34.7766 11.7595 35.4049 11.7595C35.704 11.7595 35.9733 11.6996 36.2126 11.5799C36.4519 11.43 36.781 11.1756 37.1998 10.8167C37.7681 10.2787 38.1869 9.91975 38.4562 9.73977C38.7554 9.53063 39.0695 9.42607 39.3986 9.42607C39.6978 9.42607 39.9221 9.50091 40.0717 9.65058C40.2512 9.8005 40.3409 10.0097 40.3409 10.2781C40.3409 10.458 40.3258 10.5928 40.2957 10.6823L37.2443 24.8622C37.184 25.0714 37.1539 25.3856 37.1539 25.8049C37.1539 26.7028 37.4979 27.1518 38.186 27.1518C38.5749 27.1518 38.9189 27.002 39.2182 26.7024C39.5473 26.4028 39.8913 25.9392 40.2503 25.3116C40.5195 25.0723 40.8037 24.9526 41.1028 24.9526C41.3421 24.9526 41.5216 25.042 41.6413 25.2209C41.7909 25.3706 41.8657 25.5948 41.8657 25.8936C41.8657 26.2527 41.7611 26.6413 41.5517 27.0597C40.9234 28.5554 40.026 29.7969 38.8593 30.7841C37.7225 31.7413 36.4062 32.22 34.9105 32.22C33.5344 32.22 32.4873 31.8459 31.7694 31.0978C31.0514 30.3205 30.6924 29.3333 30.6924 28.1362C30.6924 27.8073 30.7075 27.553 30.7376 27.373V27.2883C30.7376 26.9887 30.6479 26.8389 30.4684 26.8389C30.3188 26.8389 30.1841 26.9435 30.0645 27.1526C28.9875 28.6484 27.8507 29.8749 26.6541 30.8322C25.4874 31.7594 24.1268 32.2216 22.5712 32.2216ZM25.8469 27.151C27.0734 27.151 28.2401 26.448 29.347 25.0419C30.4539 23.606 31.2167 22.0653 31.6355 20.42C31.9646 19.1935 32.1741 18.2511 32.2638 17.5929C32.3834 16.9344 32.4432 16.3211 32.4432 15.7532C32.4432 14.6463 32.174 13.8087 31.6355 13.2403C31.1269 12.642 30.4389 12.3429 29.5714 12.3429C28.4047 12.3429 27.3427 12.9412 26.3854 14.1378C25.4281 15.3045 24.6802 16.7254 24.1417 18.4007C23.6032 20.0759 23.334 21.6016 23.334 22.9777C23.334 24.294 23.5584 25.3261 24.0072 26.074C24.4558 26.792 25.0691 27.151 25.8469 27.151ZM50.7066 39.9397C47.4458 39.9397 45.0077 39.2218 43.3923 37.7859C42.3153 37.1282 41.7768 36.2457 41.7768 35.1384C41.7768 34.4506 42.0012 33.8523 42.45 33.3435C42.8688 32.8648 43.4222 32.6255 44.1103 32.6255C45.3069 32.6255 46.2792 33.2088 47.027 34.3755C47.4757 35.1236 48.0292 35.707 48.6873 36.1256C49.3455 36.5741 50.2729 36.7983 51.4695 36.7983C53.2046 36.7983 54.5956 36.1701 55.6427 34.9137C56.6897 33.6872 57.4675 31.8474 57.9761 29.3944L58.5146 26.8365C58.5447 26.7423 58.5598 26.6377 58.5598 26.5228C58.5598 26.2835 58.485 26.1638 58.3355 26.1638C58.2158 26.1638 58.0812 26.2835 57.9316 26.5228C56.9444 27.9288 55.8225 29.0805 54.5661 29.978C53.3395 30.875 51.8737 31.3235 50.1685 31.3235C48.1043 31.3235 46.5488 30.7402 45.5017 29.5735C44.4547 28.3769 43.9312 26.7465 43.9312 24.6823C43.9312 22.1694 44.4098 19.7462 45.3671 17.4128C46.3244 15.0794 47.7304 13.1799 49.5852 11.714C51.4399 10.2183 53.6537 9.47036 56.2264 9.47036C57.1837 9.47036 57.9764 9.60509 58.6047 9.87457C59.2328 10.1441 59.9658 10.5478 60.8034 11.0858C61.1026 11.2647 61.4616 11.4291 61.8804 11.579C62.3291 11.6987 62.6731 11.7586 62.9125 11.7586C63.2117 11.7586 63.4809 11.6987 63.7203 11.579C63.9596 11.4294 64.2886 11.175 64.7075 10.8159C65.3058 10.2779 65.7396 9.91886 66.0088 9.7389C66.308 9.52977 66.6072 9.4252 66.9063 9.4252C67.2953 9.4252 67.5645 9.54489 67.714 9.78426C67.8636 10.0236 67.9084 10.3228 67.8483 10.6817L63.8994 29.2143C63.0618 33.1332 61.4015 35.9004 58.9185 37.5158C56.4655 39.1312 53.728 39.9397 50.7066 39.9397ZM53.8477 26.2535C55.0742 26.2535 56.1811 25.6253 57.1683 24.3689C58.1555 23.1124 58.8436 21.7064 59.2325 20.1508C59.5616 18.984 59.771 18.1165 59.8607 17.5482C59.9502 16.9499 59.9949 16.3515 59.9949 15.7532C59.9949 14.6763 59.7406 13.8386 59.232 13.2403C58.7534 12.642 58.0952 12.3429 57.2576 12.3429C56.0909 12.3429 55.0289 12.8963 54.0716 14.0031C53.1143 15.11 52.3664 16.4712 51.828 18.0866C51.2895 19.6721 51.0202 21.1379 51.0202 22.4842C51.0202 23.7406 51.2596 24.683 51.7382 25.3111C52.2468 25.9396 52.9503 26.2535 53.8477 26.2535ZM75.3867 39.9397C72.1259 39.9397 69.6878 39.2218 68.0724 37.7859C66.9955 37.1282 66.457 36.2457 66.457 35.1384C66.457 34.4506 66.6813 33.8523 67.13 33.3435C67.5488 32.8648 68.1023 32.6255 68.7903 32.6255C69.9869 32.6255 70.9592 33.2088 71.7071 34.3755C72.1558 35.1236 72.7093 35.707 73.3674 36.1256C74.0255 36.5741 74.9529 36.7983 76.1495 36.7983C77.8846 36.7983 79.2757 36.1701 80.3227 34.9137C81.3697 33.6872 82.1475 31.8474 82.6561 29.3944L83.1946 26.8365C83.2247 26.7423 83.2398 26.6377 83.2398 26.5228C83.2398 26.2835 83.165 26.1638 83.0154 26.1638C82.8957 26.1638 82.7611 26.2835 82.6116 26.5228C81.6244 27.9288 80.5026 29.0805 79.2461 29.978C78.0196 30.875 76.5537 31.3235 74.8485 31.3235C72.7844 31.3235 71.2288 30.7402 70.1818 29.5735C69.1347 28.3769 68.6112 26.7465 68.6112 24.6823C68.6112 22.1694 69.0898 19.7462 70.0471 17.4128C71.0044 15.0794 72.4104 13.1799 74.2652 11.714C76.12 10.2183 78.3337 9.47036 80.9064 9.47036C81.8637 9.47036 82.6565 9.60509 83.2847 9.87457C83.913 10.1441 84.6459 10.5478 85.4835 11.0858C85.7826 11.2647 86.1416 11.4291 86.5604 11.579C87.0092 11.6987 87.3532 11.7586 87.5926 11.7586C87.8917 11.7586 88.161 11.6987 88.4003 11.579C88.6396 11.4294 88.9687 11.175 89.3875 10.8159C89.9858 10.2779 90.4195 9.91886 90.6887 9.7389C90.9879 9.52977 91.2871 9.4252 91.5862 9.4252C91.9751 9.4252 92.2443 9.54489 92.3939 9.78426C92.5435 10.0236 92.5883 10.3228 92.5282 10.6817L88.5794 29.2143C87.7417 33.1332 86.0814 35.9004 83.5984 37.5158C81.1454 39.1312 78.4082 39.9397 75.3867 39.9397ZM78.5278 26.2535C79.7544 26.2535 80.8612 25.6253 81.8484 24.3689C82.8356 23.1124 83.5237 21.7064 83.9126 20.1508C84.2417 18.984 84.4511 18.1165 84.5408 17.5482C84.6303 16.9499 84.6751 16.3515 84.6751 15.7532C84.6751 14.6763 84.4208 13.8386 83.9122 13.2403C83.4335 12.642 82.7754 12.3429 81.9378 12.3429C80.7711 12.3429 79.7091 12.8963 78.7518 14.0031C77.7945 15.11 77.0466 16.4712 76.5081 18.0866C75.9696 19.6721 75.7004 21.1379 75.7004 22.4842C75.7004 23.7406 75.9397 24.683 76.4184 25.3111C76.9269 25.9396 77.6303 26.2535 78.5278 26.2535ZM102.086 32.2216C99.3639 32.2216 97.2249 31.4438 95.6693 29.8882C94.1436 28.3326 93.3808 26.2834 93.3808 23.7406C93.3808 21.2876 93.9641 18.9542 95.1308 16.7404C96.3275 14.5267 97.9579 12.7467 100.022 11.4005C102.116 10.0543 104.435 9.38123 106.977 9.38123C108.772 9.38123 110.238 9.87483 111.375 10.862C112.542 11.8193 113.125 13.0309 113.125 14.4968C113.125 15.9926 112.781 17.2639 112.093 18.3109C111.405 19.358 110.193 20.2406 108.458 20.9585C106.723 21.6765 104.315 22.2299 101.234 22.6187C100.964 22.647 100.77 22.7369 100.65 22.8886C100.561 23.0083 100.546 23.2627 100.605 23.6517C100.755 24.8184 101.173 25.8056 101.861 26.6134C102.55 27.4209 103.641 27.8246 105.137 27.8246C106.065 27.8246 106.932 27.6004 107.74 27.1519C108.547 26.7034 109.355 26.0901 110.163 25.312C110.492 25.0425 110.806 24.9078 111.105 24.9078C111.345 24.9078 111.539 24.9826 111.689 25.1323C111.838 25.2822 111.913 25.4914 111.913 25.7598C111.913 25.969 111.853 26.1932 111.733 26.4326C110.896 28.1078 109.639 29.4989 107.964 30.6057C106.319 31.6827 104.36 32.2216 102.086 32.2216ZM101.368 20.1058C103.402 19.6866 105.048 19.1182 106.304 18.4007C107.591 17.6525 108.249 16.4858 108.279 14.9005C108.279 13.1954 107.576 12.3429 106.17 12.3429C105.242 12.3429 104.36 12.7315 103.522 13.5089C102.714 14.2862 102.056 15.2584 101.548 16.4256C101.039 17.5624 100.74 18.6094 100.65 19.5666V19.708C100.65 20.0368 100.755 20.2012 100.964 20.2012C101.054 20.2012 101.188 20.173 101.368 20.1166L101.368 20.1058ZM120.26 32.2216C118.226 32.2216 116.67 31.5934 115.593 30.3369C114.516 29.0805 113.978 27.3753 113.978 25.2214C113.978 22.7683 114.456 20.3302 115.414 17.9071C116.401 15.4541 117.807 13.4348 119.632 11.8492C121.486 10.2637 123.625 9.47099 126.048 9.47099C127.125 9.47099 128.008 9.62081 128.696 9.92042C129.384 10.2191 129.937 10.5479 130.356 10.9069C130.775 11.2358 131.029 11.4002 131.119 11.4002C131.179 11.4002 131.224 11.3403 131.253 11.2206C131.313 11.101 131.372 10.9512 131.433 10.7712L132.285 6.50835C132.375 6.14937 132.42 5.80546 132.42 5.47661C132.42 4.81895 132.135 4.37047 131.567 4.13115C131.358 4.03691 131.073 3.94695 130.714 3.86128C130.385 3.74159 130.131 3.6219 129.952 3.50222C129.802 3.38253 129.727 3.23271 129.727 3.05276C129.727 2.60428 129.892 2.27497 130.221 2.06485C130.58 1.82548 131.118 1.58617 131.836 1.34688C135.157 0.448963 137.371 0 138.477 0C139.016 0 139.39 0.074844 139.599 0.224513C139.839 0.374435 139.958 0.643422 139.958 1.0315C139.958 1.24064 139.943 1.42014 139.913 1.57001L134.887 25.263C134.828 25.5626 134.798 25.817 134.798 26.0262C134.798 26.7743 135.127 27.1484 135.785 27.1484C136.234 27.1484 136.608 27.0136 136.907 26.7442C137.206 26.4747 137.58 25.996 138.029 25.3082C138.268 25.0991 138.522 24.9945 138.792 24.9945C139.031 24.9945 139.211 25.0693 139.33 25.219C139.48 25.3689 139.555 25.5932 139.555 25.8918C139.555 26.2508 139.45 26.6394 139.241 27.0577C138.553 28.5535 137.64 29.795 136.503 30.7822C135.396 31.7394 134.095 32.2181 132.599 32.2181C131.253 32.2181 130.221 31.844 129.503 31.0959C128.785 30.3186 128.426 29.3164 128.426 28.0893C128.426 27.7303 128.441 27.4614 128.471 27.2823V27.1977C128.471 26.9282 128.397 26.7934 128.247 26.7934C128.127 26.7934 127.978 26.9131 127.798 27.1525C126.721 28.6183 125.585 29.8298 124.388 30.7872C123.191 31.7444 121.815 32.2216 120.26 32.2216ZM123.536 27.151C124.762 27.151 125.929 26.448 127.036 25.0419C128.172 23.606 128.95 22.0653 129.369 20.42C129.728 19.2234 129.952 18.296 130.042 17.6379C130.162 16.9501 130.222 16.3219 130.222 15.7532C130.222 14.6763 129.952 13.8386 129.414 13.2403C128.905 12.642 128.217 12.3429 127.35 12.3429C126.153 12.3429 125.076 12.9262 124.119 14.0929C123.162 15.2596 122.399 16.6806 121.83 18.3559C121.292 20.0311 121.023 21.5568 121.023 22.9329C121.023 24.2791 121.247 25.3261 121.696 26.074C122.144 26.792 122.758 27.151 123.536 27.151Z" fill="white"/>
</svg>
